<!-- Generated by IcoMoon.io -->
<svg version="1.1" xmlns="http://www.w3.org/2000/svg" width="48" height="48" viewBox="0 0 48 48">
<title>server</title>
<path d="M35 10.5c0 1.38 1.12 2.5 2.5 2.5s2.5-1.12 2.5-2.5-1.12-2.5-2.5-2.5-2.5 1.12-2.5 2.5zM35 26.5c0 1.38 1.12 2.5 2.5 2.5s2.5-1.12 2.5-2.5-1.12-2.5-2.5-2.5-2.5 1.12-2.5 2.5zM0 33c0 2.21 1.79 4 4 4h17v2.76c-0.49 0.33-0.91 0.75-1.24 1.24l-12.26-0c-1.38 0-2.5 1.12-2.5 2.5s1.12 2.5 2.5 2.5h12.26c0.81 1.21 2.18 2 3.74 2s2.93-0.79 3.74-2h13.26c1.38 0 2.5-1.12 2.5-2.5s-1.12-2.5-2.5-2.5h-13.26c-0.33-0.49-0.75-0.91-1.24-1.24v-2.76h18c2.21 0 4-1.79 4-4v-29c0-2.21-1.79-4-4-4h-40c-2.21 0-4 1.79-4 4v29zM7.2 5h33.6c1.22 0 2.2 0.98 2.2 2.2v6.6c0 1.22-0.98 2.2-2.2 2.2h-33.6c-1.22 0-2.2-0.98-2.2-2.2v-6.6c0-1.22 0.98-2.2 2.2-2.2zM7.2 21h33.6c1.22 0 2.2 0.98 2.2 2.2v6.6c0 1.22-0.98 2.2-2.2 2.2l-33.6-0c-1.22 0-2.2-0.98-2.2-2.2v-6.6c0-1.22 0.98-2.2 2.2-2.2z"></path>
</svg>
